<?xml version="1.0" encoding="UTF-8"?>
<svg xmlns="http://www.w3.org/2000/svg" xmlns:xlink="http://www.w3.org/1999/xlink" width="500px" height="143px" viewBox="0 0 501 143" version="1.1">
<g id="surface1">
<path style=" stroke:none;fill-rule:nonzero;fill:rgb(0%,0%,0%);fill-opacity:1;" d="M 7.5 78.644531 L 7.5 137.15625 L 44.910156 137.152344 L 82.320312 137.140625 L 82.332031 125.429688 L 82.339844 113.722656 L 31.679688 113.722656 L 31.679688 20.132812 L 7.5 20.132812 Z M 7.5 78.644531 "/>
<path style=" stroke:none;fill-rule:nonzero;fill:rgb(0%,0%,0%);fill-opacity:1;" d="M 301.476562 20.246094 C 301.515625 20.3125 310.679688 36.871094 321.839844 57.046875 L 342.132812 93.722656 L 342.132812 137.15625 L 366.351562 137.15625 L 366.351562 93.738281 L 404.398438 24.972656 L 404.410156 34.269531 L 404.417969 43.566406 L 438.535156 43.566406 L 438.535156 137.15625 L 462.753906 137.15625 L 462.753906 43.566406 L 496.730469 43.566406 L 496.730469 20.132812 L 379.566406 20.132812 L 366.921875 45.113281 C 359.96875 58.855469 354.261719 70.097656 354.25 70.101562 C 354.230469 70.105469 348.488281 58.859375 341.492188 45.121094 L 328.769531 20.132812 L 301.402344 20.132812 Z M 301.476562 20.246094 "/>
<path style=" stroke:none;fill-rule:nonzero;fill:rgb(0%,0%,0%);fill-opacity:1;" d="M 125.878906 43.78125 C 123.949219 43.894531 122.238281 44.078125 120.527344 44.375 C 110.082031 46.164062 100.632812 51.640625 93.726562 59.914062 C 87.59375 67.257812 83.792969 76.507812 82.882812 86.308594 C 82.714844 88.132812 82.664062 89.234375 82.664062 91.222656 C 82.664062 94.058594 82.835938 96.390625 83.238281 99.011719 C 85.027344 110.625 90.824219 121.027344 99.59375 128.355469 C 106.683594 134.277344 115.34375 137.835938 124.460938 138.570312 C 125.746094 138.675781 126.609375 138.710938 128.046875 138.710938 C 130.8125 138.710938 133.121094 138.488281 135.746094 137.964844 C 141.917969 136.730469 147.65625 134.027344 152.699219 129.976562 C 153.855469 129.046875 154.769531 128.230469 155.929688 127.082031 C 156.683594 126.339844 156.707031 126.316406 156.730469 126.417969 C 156.738281 126.472656 157.121094 128.851562 157.574219 131.703125 C 158.027344 134.554688 158.410156 136.949219 158.421875 137.019531 L 158.445312 137.15625 L 178.386719 137.15625 L 178.386719 45.289062 L 168.410156 45.289062 C 162.925781 45.289062 158.4375 45.300781 158.4375 45.3125 C 158.4375 45.351562 156.753906 55.945312 156.730469 56.046875 C 156.714844 56.121094 156.625 56.046875 155.933594 55.367188 C 152.675781 52.167969 149.214844 49.683594 145.339844 47.769531 C 140.734375 45.484375 136.066406 44.222656 130.738281 43.8125 C 130.085938 43.761719 126.597656 43.742188 125.878906 43.78125 Z M 132.695312 66.75 C 137.382812 67.109375 141.601562 68.597656 145.199219 71.160156 C 147.257812 72.625 149.117188 74.480469 150.59375 76.546875 C 153.570312 80.703125 155.136719 85.769531 155.136719 91.238281 C 155.136719 94.195312 154.695312 96.914062 153.777344 99.628906 C 153.132812 101.523438 152.117188 103.582031 151.015625 105.238281 C 148.132812 109.539062 143.941406 112.75 139.019531 114.421875 C 136.492188 115.285156 134.039062 115.703125 131.242188 115.757812 C 125.046875 115.875 119.402344 113.941406 114.84375 110.148438 C 114.132812 109.5625 112.621094 108.050781 112.03125 107.339844 C 109.695312 104.535156 108.109375 101.414062 107.183594 97.808594 C 106.417969 94.824219 106.191406 91.421875 106.539062 88.226562 C 107.039062 83.722656 108.636719 79.59375 111.226562 76.132812 C 114.703125 71.492188 119.773438 68.339844 125.625 67.183594 C 126.96875 66.917969 128.148438 66.777344 129.71875 66.699219 C 130.152344 66.675781 132.207031 66.710938 132.695312 66.75 Z M 132.695312 66.75 "/>
<path style=" stroke:none;fill-rule:nonzero;fill:rgb(0%,0%,0%);fill-opacity:1;" d="M 235.175781 67.328125 L 223.070312 90.914062 L 223.007812 90.757812 C 222.972656 90.667969 219.007812 80.402344 214.195312 67.949219 L 205.457031 45.304688 L 192.792969 45.296875 C 182.671875 45.289062 180.140625 45.296875 180.152344 45.332031 C 180.164062 45.355469 188.886719 66.578125 199.535156 92.496094 C 210.183594 118.414062 218.917969 139.664062 218.9375 139.714844 C 218.976562 139.8125 219.730469 138.359375 233.113281 112.40625 C 240.882812 97.332031 247.257812 84.984375 247.269531 84.96875 C 247.28125 84.953125 253.621094 97.28125 261.351562 112.359375 C 269.085938 127.441406 275.421875 139.777344 275.429688 139.777344 C 275.453125 139.777344 314.222656 45.445312 314.246094 45.335938 C 314.257812 45.296875 312.164062 45.289062 301.53125 45.296875 L 288.804688 45.304688 L 280.15625 68.105469 C 275.402344 80.644531 271.5 90.890625 271.484375 90.875 C 271.472656 90.855469 266.152344 80.503906 259.667969 67.859375 C 253.179688 55.21875 247.742188 44.621094 247.574219 44.308594 L 247.28125 43.742188 Z M 235.175781 67.328125 "/>
</g>
</svg>
